<?xml version="1.0" encoding="UTF-8" standalone="no"?>
<!DOCTYPE svg PUBLIC "-//W3C//DTD SVG 1.1//EN" "http://www.w3.org/Graphics/SVG/1.1/DTD/svg11.dtd">

<!-- Created with Vectornator (http://vectornator.io/) -->
<svg height="100%" stroke-miterlimit="10" style="fill-rule:nonzero;clip-rule:evenodd;stroke-linecap:round;stroke-linejoin:round;" version="1.1" viewBox="0 0 3370.82 2384.24" width="100%" xml:space="preserve" xmlns="http://www.w3.org/2000/svg" xmlns:vectornator="http://vectornator.io" xmlns:xlink="http://www.w3.org/1999/xlink">
<metadata>
<vectornator:setting key="IsTimeLapseWatermarkDisabled" value="false"/>
<vectornator:setting key="UndoHistoryDisabled" value="true"/>
<vectornator:setting key="VNDimensionsVisible" value="true"/>
<vectornator:setting key="VNSnapToGuides" value="true"/>
<vectornator:setting key="WDCMYKEnabledKey" value="false"/>
<vectornator:setting key="WDDisplayWhiteBackground" value="false"/>
<vectornator:setting key="WDDynamicGuides" value="false"/>
<vectornator:setting key="WDGuidesVisible" value="true"/>
<vectornator:setting key="WDIsolateActiveLayer" value="false"/>
<vectornator:setting key="WDOutlineMode" value="false"/>
<vectornator:setting key="WDRulersVisible" value="true"/>
<vectornator:setting key="WDSnapToEdges" value="false"/>
<vectornator:setting key="WDSnapToGrid" value="false"/>
<vectornator:setting key="WDSnapToPoints" value="false"/>
<vectornator:setting key="WDUnits" value="Millimeters"/>
</metadata>
<defs/>
<g id="Layer-1" vectornator:layerName="Layer 1">
<path d="M808.896 1971.06L852.329 2239.37L903.534 1980.3L861.901 1908.92L808.896 1971.06Z" fill="#9b9292" fill-rule="evenodd" opacity="1" stroke="#221f1f" stroke-linecap="round" stroke-linejoin="round" stroke-width="0.95"/>
<path d="M1066.38 968.673L1170.24 1164.34L1174.17 907.266L1101.77 863.461L1066.38 968.673Z" fill="#9b9292" fill-rule="evenodd" opacity="1" stroke="#221f1f" stroke-linecap="round" stroke-linejoin="round" stroke-width="0.95"/>
<path d="M794.704 1463.7L857.878 1853.97L932.357 1477.13L871.801 1373.32L794.704 1463.7Z" fill="#9b9292" fill-rule="evenodd" opacity="1" stroke="#221f1f" stroke-linecap="round" stroke-linejoin="round" stroke-width="0.95"/>
<path d="M1014.2 468.637L1100.06 808.476L1186.35 469.683L1104.4 388.906L1014.2 468.637Z" fill="#9b9292" fill-rule="evenodd" opacity="1" stroke="#221f1f" stroke-linecap="round" stroke-linejoin="round" stroke-width="0.95"/>
<path d="M615.449 476.209L464.363 566.34L603.512 1084.11L611.332 1084.67L755.499 551.676L615.449 476.209Z" fill="#cdc6c6" fill-rule="evenodd" opacity="1" stroke="#221f1f" stroke-linecap="round" stroke-linejoin="round" stroke-width="0.95"/>
<path d="M128.12 442.586L117.292 815.855L304.252 493.718L243.752 387.099L128.12 442.586Z" fill="#aea2a2" fill-rule="evenodd" opacity="1" stroke="#221f1f" stroke-linecap="round" stroke-linejoin="round" stroke-width="0.95"/>
<path d="M67.0627 943.614L111.527 1187.57L190.318 925.24L128.853 859.29L67.0627 943.614Z" fill="#aea2a2" fill-rule="evenodd" opacity="1" stroke="#221f1f" stroke-linecap="round" stroke-linejoin="round" stroke-width="0.95"/>
<path d="M516.37 1171.12L616.038 1205.42L692.09 1134.92L659.158 1341.69L558.448 1344.02L516.37 1171.12Z" fill="#cdc6c6" fill-rule="evenodd" opacity="1" stroke="#221f1f" stroke-linecap="round" stroke-linejoin="round" stroke-width="0.95"/>
<path d="M330.304 1449.92L366.624 1860.92L476.388 1475.21L419.954 1362.28L330.304 1449.92Z" fill="#aea2a2" fill-rule="evenodd" opacity="1" stroke="#221f1f" stroke-linecap="round" stroke-linejoin="round" stroke-width="0.95"/>
<path d="M314.033 1969.96L339.004 2252.53L414.468 1987.35L375.669 1909.7L314.033 1969.96Z" fill="#aea2a2" fill-rule="evenodd" opacity="1" stroke="#221f1f" stroke-linecap="round" stroke-linejoin="round" stroke-width="0.95"/>
<path d="M628.444 156.919L477.901 144.498L622.873 407.399L740.7 219.817C740.7 219.817 628.179 161.044 628.444 156.919Z" fill="#cdc6c6" fill-rule="evenodd" opacity="1" stroke="#221f1f" stroke-linecap="round" stroke-linejoin="round" stroke-width="0.95"/>
</g>
</svg>
